<?xml version="1.0" encoding="UTF-8"?><svg id="Layer_1" xmlns="http://www.w3.org/2000/svg" viewBox="0 0 465.92 465.94"><defs><style>.cls-1{fill:#fff;}</style></defs><path class="cls-1" d="M58.31,58.52V29.2h87.04c.08,.53,.22,1.05,.22,1.58,.01,8.63,.02,17.27,0,25.9,0,.63-.17,1.25-.26,1.88l.06-.06c-.78-.1-1.55-.28-2.33-.28-27.48-.01-54.96-.01-82.43,0-.78,0-1.57,.16-2.36,.24l.06,.06Z"/><path class="cls-1" d="M407.33,58.53c-.77-.11-1.55-.31-2.32-.31-27.48-.02-54.96-.02-82.44,0-.79,0-1.58,.13-2.37,.2l.07,.06V29.54c1.78-.58,82.26-.82,87.11-.27,.06,.57,.19,1.17,.19,1.78,.01,8.47,.02,16.94,0,25.42,0,.71-.18,1.41-.27,2.12l.04-.04Z"/><path class="cls-1" d="M407.28,320.69c.61-.12,1.23-.36,1.84-.36,8.71-.02,17.42-.02,26.12,0,.39,0,.78,.09,1.32,.16v87.06c-.78,.05-1.62,.13-2.45,.14-7.99,.01-15.98,0-23.97,.02-.87,0-1.74,.13-2.61,.2l.07,.06c0-28.16-.01-56.32-.04-84.48,0-.94-.17-1.88-.26-2.82l-.03,.03Z"/><path class="cls-1" d="M407.29,58.57c.61-.12,1.23-.35,1.84-.35,8.71-.02,17.41-.02,26.12,0,.39,0,.77,.09,1.31,.16v87.2h-2.68c-7.91,0-15.81,0-23.72,.01-.86,0-1.73,.16-2.6,.24l.06,.06c-.02-1.04-.06-2.07-.06-3.11,0-27.14,0-54.29-.01-81.43,0-.94-.15-1.88-.23-2.82,0,0-.05,.05-.05,.05Z"/><path class="cls-1" d="M407.54,407.9v28.65h-87.29v-2.68c0-7.76,0-15.51-.01-23.27,0-.86-.17-1.72-.25-2.58l-.03,.03c.85-.13,1.71-.36,2.56-.36,27.58-.02,55.16-.02,82.74,0,.78,0,1.56,.17,2.35,.27l-.06-.06Z"/><path class="cls-1" d="M145.52,407.88v28.67H58.25v-2.65c0-7.76,0-15.51-.01-23.27,0-.86-.18-1.72-.27-2.58l-.02,.02c.85-.13,1.71-.36,2.56-.36,27.57-.02,55.14-.02,82.72,0,.78,0,1.57,.16,2.35,.25l-.06-.06Z"/><path class="cls-1" d="M58.04,145.87c-.86-.1-1.71-.28-2.57-.28-7.75-.02-15.5-.01-23.24-.01h-2.53c-.54-1.91-.7-83.88-.2-87.21,.57-.05,1.19-.16,1.8-.16,8.31-.01,16.61-.02,24.92,0,.7,0,1.4,.19,2.1,.3l-.06-.06c0,28.29,0,56.58,0,84.87,0,.87-.17,1.73-.26,2.6l.06-.06Z"/><path class="cls-1" d="M58.22,320.54c.01,9.04,.03,18.07,.04,27.11,0,19.11,0,38.23-.01,57.34,0,1.02-.19,2.05-.29,3.07l.02-.02c-.84-.12-1.69-.34-2.53-.34-7.74-.03-15.49-.02-23.23-.02-.87,0-1.73,0-2.53,0-.53-1.92-.7-83.68-.21-87.18,.41-.06,.86-.18,1.31-.18,8.62-.01,17.25-.02,25.87,0,.54,0,1.08,.18,1.62,.27l-.05-.07Z"/><path class="cls-1" d="M262,436.52v28.97c-1.8,.54-55.49,.64-58.04,.11v-28.88h2.97c17.43,0,34.85,0,52.28,0,.96,0,1.91-.08,2.87-.12l-.07-.07Z"/><path class="cls-1" d="M262.21,28.95c-.88,.04-1.75,.11-2.63,.11-17.57,0-35.15,0-52.72,0h-2.9V0h58.05c.04,9.75,.09,19.39,.13,29.03l.07-.08Z"/><path class="cls-1" d="M436.77,203.82h28.72c.5,1.91,.6,55.22,.13,57.98-.5,.05-1.04,.16-1.57,.16-8.72,0-17.43,0-26.15,0-.39,0-.79-.1-1.18-.15l.06,.07c-.02-8.21-.04-16.43-.05-24.64,0-10.29,0-20.57,0-30.86,0-.87,.07-1.75,.11-2.62l-.07,.07Z"/><path class="cls-1" d="M262.14,116.48c-.03,8.71-.05,17.43-.08,26.14,0,.87,0,1.73,0,2.78h-57.83c-.52-1.71-.68-25.57-.18-28.78,.51-.06,1.04-.18,1.58-.18,18.38,0,36.76,0,55.15,0,.48,0,.95,.07,1.43,.11l-.07-.08Z"/><path class="cls-1" d="M349.64,261.67c-.62,.1-1.24,.29-1.86,.29-8.56,.02-17.11,.02-25.67,0-.54,0-1.08-.1-1.74-.16v-57.75c.46-.09,.9-.24,1.35-.24,9.04,0,18.07,0,27.11,0,.24,0,.47,.06,.71,.1l-.07-.08c-.03,.88-.07,1.75-.07,2.63,0,17.47,0,34.94,0,52.41,0,.95,.12,1.89,.19,2.84l.05-.06Z"/><path class="cls-1" d="M29.61,261.69c-.63,.1-1.25,.27-1.88,.27-8.71,.02-17.42,.01-26.12,0-.39,0-.78-.06-1.15-.09-.47-1.76-.64-53.84-.2-57.84,.33-.07,.7-.22,1.07-.22,9.03-.01,18.05-.01,27.08,0,.39,0,.79,.11,1.18,.16,0,0-.08-.08-.08-.08-.09,.86-.26,1.72-.26,2.58-.02,17.56-.02,35.13,0,52.69,0,.85,.2,1.7,.31,2.55l.04-.04Z"/><path class="cls-1" d="M145.41,261.87h-28.76v-57.91h28.53c.52,1.7,.75,52.52,.24,57.91Z"/><path class="cls-1" d="M262.31,349.04c-.7,.1-1.4,.29-2.1,.3-18.15,.02-36.29,.01-54.44,0-.54,0-1.09-.05-1.8-.08v-28.55c1.8-.51,55.55-.57,58.09-.01v2.52c0,7.76,0,15.51,0,23.27,0,.87,.12,1.74,.19,2.61l.05-.06Z"/><path class="cls-1" d="M407.44,291.13c.05-1.27,.13-2.55,.13-3.82,.01-7.43,0-14.85,0-22.28,0-.87,0-1.75,0-2.92,.95-.05,1.79-.13,2.63-.13,7.98,0,15.97,0,23.95,0,.88,0,1.75-.06,2.63-.09l-.06-.07c0,9.64,0,19.28,0,29.04-.52,.12-.96,.31-1.4,.31-9.08,.01-18.17,0-27.25,0-.24,0-.47-.07-.7-.11l.08,.08Z"/><path class="cls-1" d="M145.29,378.76c.63-.08,1.25-.24,1.88-.24,8.71-.02,17.42-.01,26.13,0,.55,0,1.1,.14,1.64,.22l-.06-.08c-.05,.87-.14,1.74-.14,2.61-.01,7.96,0,15.93-.01,23.89,0,.95-.08,1.91-.12,2.86l.07-.07c-.54-.09-1.09-.25-1.63-.25-8.71-.02-17.41-.01-26.12,0-.47,0-.94,.11-1.41,.18l.06,.07c0-8.97,.01-17.94,0-26.9,0-.78-.15-1.56-.23-2.34l-.05,.06Z"/><path class="cls-1" d="M349.33,349.15v28.87c-.16,.16-.22,.23-.28,.28-.06,.05-.13,.11-.2,.11-9.58,.03-19.17,.06-28.75,.09l.07,.07c.03-8.79,.05-17.57,.08-26.36,0-.86,0-1.71,0-2.86,1.11,0,1.97,0,2.82,0,7.9,0,15.81,0,23.71,0,.87,0,1.75-.08,2.62-.12l-.07-.07Z"/><path class="cls-1" d="M320.08,87.22h29.18c.05,.97,.13,1.81,.13,2.65,0,7.97,0,15.94,0,23.9,0,.88,.05,1.75,.07,2.63l.07-.08c-3.35,.04-6.7,.1-10.05,.11-5.51,.02-11.01,0-16.52,0h-2.62c-.04-1.01-.11-1.86-.11-2.7,0-7.98,0-15.97,0-23.95,0-.88-.06-1.75-.1-2.63l-.06,.06Z"/><path class="cls-1" d="M407.46,174.55h29.23c.03,9.91,.05,19.59,.08,29.27l.07-.07c-9.64,0-19.28,0-29.22,0-.03-9.85-.07-19.56-.1-29.27l-.06,.06Z"/><path class="cls-1" d="M58.27,320.6c0-8.9,0-17.79-.03-26.69,0-.86-.15-1.72-.23-2.58,0,0-.05,.06-.05,.06,.55-.07,1.1-.2,1.65-.2,8.92-.01,17.84,0,26.76,0,.4,0,.79,.07,1.19,.11l-.07-.08c-.03,8.78-.05,17.56-.08,26.33,0,1.03-.08,2.07-.12,3.1l.07-.07c-.62-.09-1.25-.25-1.87-.25-8.54-.02-17.08-.02-25.63,0-.55,0-1.1,.13-1.64,.2l.06,.07Z"/><path class="cls-1" d="M145.28,86.93c.1,.62,.29,1.24,.29,1.86,.02,8.71,.01,17.42,0,26.13,0,.39-.07,.78-.12,1.34h-28.81v-29.03h2.6c7.83,0,15.65,0,23.48-.01,.86,0,1.72-.17,2.58-.26l-.03-.03Z"/><path class="cls-1" d="M349.47,116.4h28.85v28.78c-1.82,.51-26.29,.59-28.78,.09-.05-.43-.14-.89-.14-1.35,0-8.8,0-17.6,0-26.4,0-.4,.09-.79,.14-1.19l-.07,.07Z"/><path class="cls-1" d="M87.68,145.97c-.09-.63-.26-1.25-.26-1.88-.02-8.7-.01-17.41,0-26.11,0-.39,.06-.78,.09-1.15,1.75-.49,25.64-.61,28.8-.14v28.89c-.95,0-1.8,0-2.66,0-7.82,0-15.64-.01-23.46,.02-.85,0-1.69,.22-2.54,.34,0,0,.03,.04,.03,.04Z"/><path class="cls-1" d="M29.57,261.73c.86,.08,1.72,.23,2.59,.23,7.75,.02,15.51,.01,23.26,.01,.86,0,1.72,0,2.68,0,.07,.87,.16,1.49,.16,2.11,0,8.4,.01,16.79,0,25.19,0,.7-.18,1.4-.28,2.11,0,0,.05-.06,.05-.05-.88-.05-1.75-.14-2.62-.15-7.74-.01-15.48,0-23.22,0h-2.75c-.07-.88-.18-1.57-.18-2.26-.01-8.3-.02-16.6,0-24.91,0-.77,.23-1.55,.35-2.32l-.04,.04Z"/><path class="cls-1" d="M87.55,291.29c-.05-.79-.14-1.59-.14-2.38-.01-8.08,0-16.15,0-24.23v-2.54h28.92v29.07c-9.71,0-19.28,0-28.84,0l.07,.08Z"/><path class="cls-1" d="M349.59,261.72c.86,.08,1.72,.24,2.58,.24,7.74,.02,15.49,.01,23.23,.01h2.54c.63,1.85,.77,26.25,.2,29.08h-28.52c-.08-.47-.22-.92-.22-1.37-.01-8.79-.02-17.57,0-26.36,0-.55,.15-1.1,.23-1.65,0,0-.04,.05-.04,.05Z"/><path class="cls-1" d="M87.65,174.3c-.7,.1-1.39,.29-2.09,.29-8.5,.02-17,.02-25.51,0-.7,0-1.4-.19-2.09-.28l.04,.04c.08-.54,.24-1.08,.24-1.62,.02-8.49,.01-16.98,0-25.48,0-.46-.13-.93-.2-1.39l-.06,.06c.77-.12,1.54-.34,2.32-.34,8.36-.02,16.71-.03,25.07,0,.77,0,1.53,.25,2.3,.38,0,0-.03-.04-.03-.04-.08,.47-.23,.93-.23,1.39-.01,8.54-.01,17.08,0,25.62,0,.47,.12,.94,.19,1.41l.05-.06Z"/><path class="cls-1" d="M407.31,320.66c-.85-.11-1.69-.32-2.54-.32-7.82-.03-15.64-.01-23.46-.01h-2.69v-29.19c9.71,0,19.27,0,28.82,0l-.08-.08c.07,.71,.21,1.41,.21,2.12,.01,8.39,.02,16.78,0,25.16,0,.78-.18,1.57-.29,2.35l.03-.03Z"/><path class="cls-1" d="M174.88,87.04c.87,.06,1.74,.18,2.61,.18,7.82,.01,15.65,0,23.47,0h2.7v29.07h-28.66c-.08-.35-.24-.72-.24-1.09-.01-9.02-.01-18.05,0-27.07,0-.39,.14-.78,.2-1.16l-.08,.07Z"/><path class="cls-1" d="M349.54,203.92c-.05-.79-.14-1.59-.14-2.38-.01-8.08,0-16.15,0-24.23,0-.79,0-1.58,0-2.54h28.92v29.07c-9.71,0-19.28,0-28.84,0l.07,.08Z"/><path class="cls-1" d="M174.98,58.58c-.08,.54-.23,1.09-.23,1.63-.01,8.55-.01,17.1,0,25.66,0,.39,.08,.79,.13,1.18,0,0,.08-.07,.08-.07-.62,.09-1.24,.25-1.86,.25-8.57,.02-17.15,.02-25.72,0-.7,0-1.39-.19-2.09-.29l.03,.03c.09-.54,.26-1.07,.26-1.6,.02-8.49,.01-16.98,0-25.48,0-.46-.13-.93-.2-1.39l-.06,.06c.85-.12,1.7-.34,2.56-.34,8.2-.03,16.4-.03,24.6,0,.85,0,1.69,.25,2.54,.39l-.03-.03Z"/><path class="cls-1" d="M145.35,378.7c-.87-.06-1.74-.18-2.61-.18-7.75-.01-15.51,0-23.26,0-.86,0-1.73,0-2.53,0-.56-1.9-.72-25.62-.24-29h28.72c.06,.71,.15,1.32,.15,1.94,0,8.4,.01,16.79,0,25.19,0,.7-.18,1.41-.28,2.11l.05-.06Z"/><path class="cls-1" d="M174.95,378.73c-.07-.63-.2-1.26-.2-1.89-.01-8.47-.01-16.95,0-25.42,0-.61,.1-1.23,.16-1.96h28.73v29.04c-.94,0-1.79,0-2.64,0-7.83,0-15.66,0-23.49,0-.87,0-1.75,.09-2.62,.14,0,0,.07,.08,.07,.08Z"/><path class="cls-1" d="M262.26,349.09c.86,.08,1.72,.24,2.58,.24,7.75,.02,15.51,.01,23.26,.01,.87,0,1.73,0,2.53,0,.58,1.87,.77,25.33,.27,29h-28.56c-.08-.37-.26-.82-.27-1.26-.02-8.88-.02-17.76,0-26.63,0-.47,.15-.94,.23-1.41,0,0-.04,.05-.04,.05Z"/><path class="cls-1" d="M87.6,174.35c.86,.08,1.72,.24,2.58,.24,7.74,.02,15.49,.01,23.23,.01h2.54c.63,1.85,.77,26.25,.2,29.08h-28.52c-.08-.47-.22-.92-.22-1.37-.01-8.79-.02-17.57,0-26.36,0-.55,.15-1.1,.23-1.65,0,0-.04,.05-.04,.05Z"/><path class="cls-1" d="M57.96,174.31c.1,.62,.28,1.24,.28,1.87,.02,8.7,.01,17.4,0,26.1,0,.39-.06,.78-.12,1.48-9.56,.05-19.09,.1-28.62,.15,0,0,.08,.08,.08,.08-.11-.69-.33-1.38-.33-2.07-.02-8.45-.02-16.9,0-25.35,0-.55,.09-1.09,.16-1.95,.9,0,1.75,0,2.6,0,7.81,0,15.62,0,23.43-.01,.86,0,1.72-.15,2.57-.24,0,0-.05-.05-.05-.05Z"/><path class="cls-1" d="M319.98,408.03c-.85-.11-1.69-.32-2.54-.32-7.83-.03-15.66-.01-23.49-.01h-2.69v-28.91c.46-.09,.9-.26,1.35-.26,9.19,0,18.38,.02,27.56,.04l-.07-.07c.05,.79,.14,1.58,.14,2.37,.01,8.12,.02,16.24,0,24.37,0,.94-.18,1.88-.29,2.82l.03-.03Z"/><path class="cls-1" d="M262.14,29.03h28.85v28.78c-1.82,.51-26.29,.59-28.78,.09-.05-.43-.14-.89-.14-1.35,0-8.8,0-17.6,0-26.4,0-.4,.09-.79,.14-1.19l-.07,.07Z"/><path class="cls-1" d="M175.01,58.61c-.09-.63-.26-1.25-.26-1.88-.02-8.71-.01-17.41,0-26.12,0-.39,.06-.78,.09-1.15,1.75-.49,25.69-.61,28.8-.14v28.88h-2.67c-7.82,0-15.65-.01-23.47,.02-.84,0-1.68,.22-2.52,.35,0,0,.04,.04,.04,.04Z"/><path class="cls-1" d="M262.21,116.55c-.05-.79-.14-1.59-.14-2.38-.01-8.08,0-16.15,0-24.23v-2.54h28.92v29.07c-9.71,0-19.28,0-28.84,0l.07,.08Z"/><path class="cls-1" d="M407.52,174.49c-3.11,.04-6.22,.1-9.33,.11-5.67,.02-11.34,0-17.01,0h-2.3c-.5-2-.68-24.37-.26-28.73,.4-.09,.84-.28,1.28-.28,8.78-.02,17.56-.02,26.35,0,.46,0,.92,.19,1.38,.3l-.06-.06c0,8.86,0,17.72,0,26.58,0,.71-.08,1.43-.12,2.14l.06-.06Z"/><path class="cls-1" d="M320.21,58.42c.01,9.21,.03,18.42,.03,27.63,0,.39-.1,.78-.15,1.17l.06-.06c-9.33,.02-18.66,.04-27.99,.05-.23,0-.45-.1-.84-.19v-28.67c.65-.05,1.19-.14,1.73-.14,8.53,0,17.07-.01,25.6,0,.54,0,1.08,.17,1.63,.27l-.06-.06Z"/><path class="cls-1" d="M349.4,349.21v-28.47c1.94-.53,26.22-.62,28.91-.12v28.51c-.51,.07-.96,.2-1.42,.2-8.72,.01-17.43,.01-26.15,0-.47,0-.94-.12-1.42-.19l.07,.07Z"/><path class="cls-1" d="M174.61,408.02c.62-.11,1.23-.32,1.85-.33,8.48-.02,16.95-.02,25.43,0,.54,0,1.08,.08,1.76,.13v28.73h-28.82c-.23-9.49,.01-19.05-.14-28.6,0,0-.08,.08-.08,.08Z"/><path class="cls-1" d="M262.07,436.58v-28.47c1.94-.53,26.21-.62,28.91-.12v28.51c-.51,.07-.96,.2-1.42,.2-8.72,.01-17.43,.01-26.15,0-.47,0-.94-.12-1.42-.19l.07,.07Z"/><path class="cls-1" d="M87.28,320.65c.62-.11,1.23-.32,1.85-.33,8.48-.02,16.95-.02,25.43,0,.54,0,1.08,.08,1.76,.13v28.73h-28.82c-.23-9.49,.01-19.05-.14-28.6,0,0-.08,.08-.08,.08Z"/></svg>