<?xml version="1.0" encoding="UTF-8"?><svg id="Layer_2" xmlns="http://www.w3.org/2000/svg" viewBox="0 0 1274.61 581.09"><defs><style>.cls-1{fill:none;stroke:#fff;stroke-miterlimit:10;stroke-width:1px;}</style></defs><g id="Layer_1-2"><g><path class="cls-1" d="M421.36,390.46l29.33-27.34,20.38-19,7.49-6.99c11.87-12.58,19.33-28.81,20.16-46.65-.83-17.84-8.29-34.07-20.16-46.65l-7.49-6.99-20.38-19-29.38-27.39-24.6,22.93-10.73,10-45.26,42.2"/><polyline class="cls-1" points="340.71 265.59 315.94 290.41 340.65 315.22"/><polyline class="cls-1" points="932.01 265.68 958.49 290.49 932.08 315.3"/><path class="cls-1" d="M2.5,290.39c0,42.21,28.7,76.41,64.09,76.41,16.52,0,31.8-7.19,43.16-19.44h0l47.77-56.97-47.77-56.97h0c-11.36-12.25-26.64-19.44-43.16-19.44-35.39,0-64.09,34.22-64.09,76.41Z"/><path class="cls-1" d="M792.91,550.96l10.78,10.05c-3.92-3.03-7.53-6.4-10.78-10.05Z"/><path class="cls-1" d="M919.7,454.56l-11.56-10.78c4.22,3.24,8.1,6.84,11.56,10.78Z"/><path class="cls-1" d="M478.56,243.83l-7.49-6.99c2.66,2.17,5.15,4.5,7.49,6.99Z"/><path class="cls-1" d="M938.08,502.56c0,7.85-1.29,15.44-3.66,22.57-7.93,23.72-28.06,42.46-53.57,49.94-7.82,2.29-16.12,3.52-24.73,3.52-19.94,0-38.21-6.59-52.42-17.57l-10.83-10.1-56.71-52.85,115.11-107.31,68.44,63.8c11.49,13.09,18.38,29.79,18.38,48Z"/><path class="cls-1" d="M340.71,265.59l45.26-42.2,10.73-10,24.6-22.93,29.38,27.39,20.38,19,3.86,3.6c4.04,3.76,7.76,7.82,10.87,12.29,1.64,2.36,3.14,4.81,4.5,7.34,10.21,19.07,10.21,41.76,0,60.82-1.35,2.53-2.86,4.98-4.5,7.34-3.1,4.47-6.83,8.53-10.87,12.29l-3.86,3.6-20.38,19-29.33,27.34-24.51-22.85-56.2-52.39"/><path class="cls-1" d="M396.84,367.61c-.05-.02-.08-.02-.14-.03l-10.73-10-45.26-42.2s-.05-.11-.07-.16l56.2,52.39Z"/><path class="cls-1" d="M421.36,390.46l-.05,.05-24.6-22.93c.05,.02,.08,.02,.14,.03l24.51,22.85Z"/><path class="cls-1" d="M334.86,502.56c0,7.85,1.29,15.44,3.66,22.57,7.93,23.72,28.06,42.46,53.57,49.94,7.82,2.29,16.12,3.52,24.73,3.52,19.94,0,38.21-6.59,52.42-17.57l10.83-10.1,56.71-52.85-115.11-107.31-68.44,63.8c-11.49,13.09-18.38,29.79-18.38,48Z"/><path class="cls-1" d="M938.08,78.53c0-7.85-1.29-15.44-3.66-22.57-7.93-23.72-28.06-42.46-53.57-49.94-7.82-2.29-16.12-3.52-24.73-3.52-19.94,0-38.21,6.59-52.42,17.57l-10.83,10.1-56.71,52.85,115.11,107.31,68.44-63.8c11.49-13.09,18.38-29.79,18.38-48Z"/><path class="cls-1" d="M334.86,78.53c0-7.85,1.29-15.44,3.66-22.57,7.93-23.72,28.06-42.46,53.57-49.94,7.82-2.29,16.12-3.52,24.73-3.52,19.94,0,38.21,6.59,52.42,17.57l10.83,10.1,56.71,52.85-115.11,107.31-68.44-63.8c-11.49-13.09-18.38-29.79-18.38-48Z"/><path class="cls-1" d="M932.01,265.68l-45.26-42.2-10.73-10-24.6-22.93-29.38,27.39-20.38,19-3.86,3.6c-4.04,3.76-7.76,7.82-10.87,12.29-1.64,2.36-3.14,4.81-4.5,7.34-10.21,19.07-10.21,41.76,0,60.82,1.35,2.53,2.86,4.98,4.5,7.34,3.1,4.47,6.83,8.53,10.87,12.29l3.86,3.6,20.38,19,29.33,27.34,24.51-22.85,56.2-52.39"/><path class="cls-1" d="M735.66,499.22l.49-.48-27.3-26.57-18.94-18.43-3.59-3.49c-3.75-3.65-7.8-7.02-12.25-9.83-2.35-1.48-4.79-2.84-7.31-4.06-19.01-9.24-41.63-9.24-60.63,0-2.52,1.22-4.96,2.58-7.31,4.06-4.45,2.81-8.5,6.18-12.25,9.83l-3.59,3.49-18.94,18.43-27.26,26.52"/><path class="cls-1" d="M735.66,82.5l.49,.48-27.3,26.57-18.94,18.43-3.59,3.49c-3.75,3.65-7.8,7.02-12.25,9.83-2.35,1.48-4.79,2.84-7.31,4.06-19.01,9.24-41.63,9.24-60.63,0-2.52-1.22-4.96-2.58-7.31-4.06-4.45-2.81-8.5-6.18-12.25-9.83l-3.59-3.49-18.94-18.43-27.26-26.52"/><path class="cls-1" d="M735.98,84.73l.49-.48-27.3-26.57-18.94-18.43-3.59-3.49c-3.75-3.65-7.8-7.02-12.25-9.83-2.35-1.48-4.79-2.84-7.31-4.06-19.01-9.24-41.63-9.24-60.63,0-2.52,1.22-4.96,2.58-7.31,4.06-4.45,2.81-8.5,6.18-12.25,9.83l-3.59,3.49-18.94,18.43-27.26,26.52"/><path class="cls-1" d="M735.98,499.22l.49,.48-27.3,26.57-18.94,18.43-3.59,3.49c-3.75,3.65-7.8,7.02-12.25,9.83-2.35,1.48-4.79,2.84-7.31,4.06-19.01,9.24-41.63,9.24-60.63,0-2.52-1.22-4.96-2.58-7.31-4.06-4.45-2.81-8.5-6.18-12.25-9.83l-3.59-3.49-18.94-18.43-27.26-26.52"/><g><path class="cls-1" d="M314.42,290.54l.39-.48-21.35-26.57-14.81-18.43-2.81-3.49c-2.93-3.65-6.1-7.02-9.58-9.83-1.84-1.48-3.75-2.84-5.72-4.06-14.86-9.24-32.55-9.24-47.41,0-1.97,1.22-3.88,2.58-5.72,4.06-3.48,2.81-6.65,6.18-9.58,9.83l-2.81,3.49-14.81,18.43-21.31,26.52"/><path class="cls-1" d="M314.67,290.54h0l-20.96,27.05-14.81,18.43-2.81,3.49c-2.93,3.65-6.1,7.02-9.58,9.83-1.84,1.48-3.75,2.84-5.72,4.06-14.86,9.24-32.55,9.24-47.41,0-1.97-1.22-3.88-2.58-5.72-4.06-3.48-2.81-6.65-6.18-9.58-9.83l-2.81-3.49-14.81-18.43-21.31-26.52"/></g><path class="cls-1" d="M1272.11,290.39c0,42.21-28.7,76.41-64.09,76.41-16.52,0-31.8-7.19-43.16-19.44h0l-47.77-56.97,47.77-56.97h0c11.36-12.25,26.64-19.44,43.16-19.44,35.39,0,64.09,34.22,64.09,76.41Z"/><g><path class="cls-1" d="M960.19,290.54l-.39-.48,21.35-26.57,14.81-18.43,2.81-3.49c2.93-3.65,6.1-7.02,9.58-9.83,1.84-1.48,3.75-2.84,5.72-4.06,14.86-9.24,32.55-9.24,47.41,0,1.97,1.22,3.88,2.58,5.72,4.06,3.48,2.81,6.65,6.18,9.58,9.83l2.81,3.49,14.81,18.43,21.31,26.52"/><path class="cls-1" d="M959.95,290.54h0l20.96,27.05,14.81,18.43,2.81,3.49c2.93,3.65,6.1,7.02,9.58,9.83,1.84,1.48,3.75,2.84,5.72,4.06,14.86,9.24,32.55,9.24,47.41,0,1.97-1.22,3.88-2.58,5.72-4.06,3.48-2.81,6.65-6.18,9.58-9.83l2.81-3.49,14.81-18.43,21.31-26.52"/></g></g></g></svg>